<svg width="20" height="22" viewBox="0 0 20 22" fill="none" xmlns="http://www.w3.org/2000/svg">
<path fill-rule="evenodd" clip-rule="evenodd" d="M13 21.974H3C1.34626 21.974 0.00440598 20.6357 0 18.982V8.01396C0.000644684 7.70567 0.14344 7.41493 0.387005 7.22597L9.387 0.245972C9.74813 -0.0349579 10.2539 -0.0349579 10.615 0.245972L19.615 7.22597C19.8582 7.41515 20.0006 7.70586 20.001 8.01396V18.981C19.9972 20.6354 18.6546 21.9745 17 21.974H13ZM17 19.974C17.5523 19.974 18 19.5263 18 18.974V8.49397L10 2.29398L2 8.49397V18.974C2 19.5263 2.44772 19.974 3 19.974H6V11C6 10.4477 6.44772 9.99997 7 9.99997H13C13.5523 9.99997 14 10.4477 14 11V19.974H17ZM12 19.974V11.997H8V19.974H12Z" fill="#F28D4F"/>
</svg>
